<svg xmlns="http://www.w3.org/2000/svg" viewBox="0 0 1200 580" width="1200" height="580">
  <style>
    text { font-family: 'Helvetica Neue', Helvetica, Arial, sans-serif; }
  </style>
  <defs>
    <marker id="arr-blue" markerWidth="10" markerHeight="7" refX="9" refY="3.5" orient="auto">
      <polygon points="0 0, 10 3.5, 0 7" fill="#2563eb"/>
    </marker>
    <marker id="arr-orange" markerWidth="10" markerHeight="7" refX="9" refY="3.5" orient="auto">
      <polygon points="0 0, 10 3.5, 0 7" fill="#ea580c"/>
    </marker>
    <marker id="arr-green" markerWidth="10" markerHeight="7" refX="9" refY="3.5" orient="auto">
      <polygon points="0 0, 10 3.5, 0 7" fill="#16a34a"/>
    </marker>
    <marker id="arr-purple" markerWidth="10" markerHeight="7" refX="9" refY="3.5" orient="auto">
      <polygon points="0 0, 10 3.5, 0 7" fill="#9333ea"/>
    </marker>
    <marker id="arr-gray" markerWidth="10" markerHeight="7" refX="9" refY="3.5" orient="auto">
      <polygon points="0 0, 10 3.5, 0 7" fill="#6b7280"/>
    </marker>
    <filter id="shadow" x="-10%" y="-10%" width="120%" height="130%">
      <feDropShadow dx="0" dy="2" stdDeviation="3" flood-color="#00000014"/>
    </filter>
  </defs>
  <rect width="1200" height="580" fill="#ffffff"/>
  <text x="600" y="30" text-anchor="middle" font-size="20" font-weight="700" fill="#111827">Pilotariak — Infrastructure</text>
  <rect x="20" y="46" width="1160" height="88" rx="8" fill="#fafaf9" stroke="#e5e7eb" stroke-width="1" stroke-dasharray="5,3"/>
  <text x="36" y="64" font-size="10" font-weight="700" fill="#9ca3af" letter-spacing="1.5">EXTERNAL</text>
  <rect x="290" y="58" width="220" height="64" rx="10" fill="#4a154b" stroke="#7c3aed" stroke-width="1.5" filter="url(#shadow)"/>
  <text x="400" y="86" text-anchor="middle" font-size="15" font-weight="700" fill="white">Slack</text>
  <text x="400" y="104" text-anchor="middle" font-size="11" fill="#c4b5fd">Events API · Slash Commands</text>
  <rect x="20" y="148" width="1160" height="390" rx="10" fill="#fffbf5" stroke="#f97316" stroke-width="2"/>
  <rect x="20" y="148" width="160" height="24" rx="8" fill="#f97316"/>
  <text x="100" y="164" text-anchor="middle" font-size="11" font-weight="700" fill="white">☁ Cloudflare</text>
  <text x="36" y="190" font-size="10" font-weight="700" fill="#f97316" letter-spacing="1.2">WORKERS</text>
  <rect x="35" y="198" width="180" height="82" rx="8" fill="#fff7ed" stroke="#fed7aa" stroke-width="1.5" filter="url(#shadow)"/>
  <rect x="35" y="198" width="180" height="22" rx="8" fill="#fde68a" stroke="#fed7aa" stroke-width="1.5"/>
  <rect x="35" y="208" width="180" height="12" fill="#fde68a"/>
  <text x="125" y="240" text-anchor="middle" font-size="13" font-weight="700" fill="#92400e">Website</text>
  <text x="125" y="256" text-anchor="middle" font-size="11" fill="#4b5563">Worker · Astro SSG</text>
  <text x="125" y="271" text-anchor="middle" font-size="10" fill="#9ca3af">Static · No bindings</text>
  <rect x="285" y="198" width="220" height="82" rx="8" fill="#faf5ff" stroke="#e9d5ff" stroke-width="1.5" filter="url(#shadow)"/>
  <text x="395" y="236" text-anchor="middle" font-size="14" font-weight="700" fill="#7c3aed">Xilo</text>
  <text x="395" y="253" text-anchor="middle" font-size="11" fill="#4b5563">Worker · Slack Bot</text>
  <text x="395" y="268" text-anchor="middle" font-size="10" fill="#9ca3af">Queues producer + consumer</text>
  <rect x="590" y="198" width="280" height="82" rx="8" fill="#fff7ed" stroke="#fed7aa" stroke-width="1.5" filter="url(#shadow)"/>
  <rect x="590" y="198" width="70" height="20" rx="6" fill="#ea580c"/>
  <text x="625" y="212" text-anchor="middle" font-size="10" font-weight="700" fill="white">Gateway</text>
  <text x="730" y="240" text-anchor="middle" font-size="14" font-weight="700" fill="#c2410c">Frontis</text>
  <text x="730" y="257" text-anchor="middle" font-size="11" fill="#4b5563">Worker · GraphQL Federation</text>
  <text x="730" y="272" text-anchor="middle" font-size="10" fill="#9ca3af">Single /graphql · Schema composition</text>
  <text x="36" y="310" font-size="10" font-weight="700" fill="#f97316" letter-spacing="1.2">PLATFORM SERVICES</text>
  <rect x="285" y="318" width="220" height="70" rx="8" fill="#f0fdf4" stroke="#86efac" stroke-width="1.5" filter="url(#shadow)"/>
  <!-- Queue pipe shapes -->
  <rect x="298" y="330" width="9" height="30" rx="2" fill="#16a34a" opacity="0.4"/>
  <rect x="312" y="330" width="9" height="30" rx="2" fill="#16a34a" opacity="0.6"/>
  <rect x="326" y="330" width="9" height="30" rx="2" fill="#16a34a" opacity="0.8"/>
  <text x="415" y="350" text-anchor="middle" font-size="13" font-weight="700" fill="#15803d">Queues</text>
  <text x="415" y="367" text-anchor="middle" font-size="11" fill="#4b5563">Cloudflare Queues</text>
  <text x="415" y="380" text-anchor="middle" font-size="10" fill="#9ca3af">Async job processing</text>
  <text x="590" y="310" font-size="10" font-weight="700" fill="#f97316" letter-spacing="1.2">SUBGRAPH WORKERS</text>
  <rect x="540" y="318" width="98" height="70" rx="8" fill="#f9fafb" stroke="#9ca3af" stroke-width="1.5"/>
  <text x="589" y="350" text-anchor="middle" font-size="12" font-weight="700" fill="#374151">echo</text>
  <text x="589" y="365" text-anchor="middle" font-size="10" fill="#6b7280">Health · Version</text>
  <text x="589" y="379" text-anchor="middle" font-size="9" fill="#9ca3af">@key: id</text>
  <rect x="652" y="318" width="98" height="70" rx="8" fill="#eff6ff" stroke="#bfdbfe" stroke-width="1.5"/>
  <text x="701" y="350" text-anchor="middle" font-size="12" font-weight="700" fill="#1d4ed8">categories</text>
  <text x="701" y="365" text-anchor="middle" font-size="10" fill="#6b7280">Category entity</text>
  <text x="701" y="379" text-anchor="middle" font-size="9" fill="#93c5fd">@key: id</text>
  <rect x="764" y="318" width="98" height="70" rx="8" fill="#fef2f2" stroke="#fecaca" stroke-width="1.5"/>
  <text x="813" y="350" text-anchor="middle" font-size="12" font-weight="700" fill="#dc2626">clubs</text>
  <text x="813" y="365" text-anchor="middle" font-size="10" fill="#6b7280">Club entity</text>
  <text x="813" y="379" text-anchor="middle" font-size="9" fill="#f87171">@key: id</text>
  <rect x="876" y="318" width="98" height="70" rx="8" fill="#fefce8" stroke="#fde68a" stroke-width="1.5"/>
  <text x="925" y="350" text-anchor="middle" font-size="12" font-weight="700" fill="#a16207">competitions</text>
  <text x="925" y="365" text-anchor="middle" font-size="10" fill="#6b7280">Competition entity</text>
  <text x="925" y="379" text-anchor="middle" font-size="9" fill="#fbbf24">@key: id</text>
  <rect x="988" y="318" width="98" height="70" rx="8" fill="#f0fdf4" stroke="#bbf7d0" stroke-width="1.5"/>
  <text x="1037" y="350" text-anchor="middle" font-size="12" font-weight="700" fill="#15803d">results</text>
  <text x="1037" y="365" text-anchor="middle" font-size="10" fill="#6b7280">Result entity</text>
  <text x="1037" y="379" text-anchor="middle" font-size="9" fill="#4ade80">@key: id</text>
  <rect x="1100" y="318" width="98" height="70" rx="8" fill="#faf5ff" stroke="#e9d5ff" stroke-width="1.5"/>
  <text x="1149" y="350" text-anchor="middle" font-size="12" font-weight="700" fill="#7c3aed">specialties</text>
  <text x="1149" y="365" text-anchor="middle" font-size="10" fill="#6b7280">Specialty entity</text>
  <text x="1149" y="379" text-anchor="middle" font-size="9" fill="#a78bfa">@key: id</text>
  <text x="590" y="420" font-size="10" font-weight="700" fill="#f97316" letter-spacing="1.2">DATABASE</text>
  <rect x="590" y="428" width="420" height="70" rx="8" fill="#eff6ff" stroke="#bfdbfe" stroke-width="1.5" filter="url(#shadow)"/>
  <ellipse cx="612" cy="448" rx="14" ry="6" fill="#bfdbfe" stroke="#93c5fd" stroke-width="1"/>
  <rect x="598" y="448" width="28" height="22" fill="#dbeafe" stroke="none"/>
  <ellipse cx="612" cy="470" rx="14" ry="6" fill="#93c5fd" stroke="#60a5fa" stroke-width="1"/>
  <line x1="598" y1="448" x2="598" y2="470" stroke="#93c5fd" stroke-width="1"/>
  <line x1="626" y1="448" x2="626" y2="470" stroke="#93c5fd" stroke-width="1"/>
  <text x="800" y="458" text-anchor="middle" font-size="14" font-weight="700" fill="#1d4ed8">D1</text>
  <text x="800" y="475" text-anchor="middle" font-size="11" fill="#4b5563">Cloudflare D1 · SQLite · Serverless</text>
  <text x="800" y="490" text-anchor="middle" font-size="10" fill="#9ca3af">Bound to subgraph workers · One DB per league</text>
  <!-- Arrows -->
  <line x1="400" y1="122" x2="395" y2="198" stroke="#9333ea" stroke-width="1.5" marker-end="url(#arr-purple)"/>
  <rect x="405" y="150" width="78" height="16" rx="3" fill="white" opacity="0.9"/>
  <text x="444" y="162" text-anchor="middle" font-size="10" fill="#9333ea">webhook event</text>
  <line x1="395" y1="280" x2="395" y2="318" stroke="#16a34a" stroke-width="1.5" marker-end="url(#arr-green)"/>
  <rect x="399" y="292" width="54" height="15" rx="3" fill="white" opacity="0.9"/>
  <text x="426" y="303" text-anchor="middle" font-size="10" fill="#16a34a">produce</text>
  <path d="M 285,353 C 220,353 220,239 285,239" stroke="#16a34a" stroke-width="1.5" stroke-dasharray="5,3" fill="none" marker-end="url(#arr-green)"/>
  <rect x="192" y="285" width="58" height="15" rx="3" fill="white" opacity="0.9"/>
  <text x="221" y="296" text-anchor="middle" font-size="10" fill="#16a34a">consume</text>
  <line x1="505" y1="239" x2="590" y2="239" stroke="#2563eb" stroke-width="1.5" marker-end="url(#arr-blue)"/>
  <rect x="516" y="225" width="64" height="15" rx="3" fill="white" opacity="0.9"/>
  <text x="548" y="236" text-anchor="middle" font-size="10" fill="#2563eb">GraphQL</text>
  <path d="M 625,280 C 625,299 589,299 589,318" stroke="#ea580c" stroke-width="1.2" fill="none" marker-end="url(#arr-orange)"/>
  <path d="M 655,280 C 655,299 701,299 701,318" stroke="#ea580c" stroke-width="1.2" fill="none" marker-end="url(#arr-orange)"/>
  <path d="M 690,280 C 690,299 813,299 813,318" stroke="#ea580c" stroke-width="1.2" fill="none" marker-end="url(#arr-orange)"/>
  <path d="M 730,280 C 730,299 925,299 925,318" stroke="#ea580c" stroke-width="1.2" fill="none" marker-end="url(#arr-orange)"/>
  <path d="M 775,280 C 775,299 1037,299 1037,318" stroke="#ea580c" stroke-width="1.2" fill="none" marker-end="url(#arr-orange)"/>
  <path d="M 815,280 C 815,299 1149,299 1149,318" stroke="#ea580c" stroke-width="1.2" fill="none" marker-end="url(#arr-orange)"/>
  <path d="M 701,388 C 701,408 800,408 800,428" stroke="#6b7280" stroke-width="1.2" fill="none" stroke-dasharray="4,2" marker-end="url(#arr-gray)"/>
  <path d="M 813,388 C 813,408 800,408 800,428" stroke="#6b7280" stroke-width="1.2" fill="none" stroke-dasharray="4,2" marker-end="url(#arr-gray)"/>
  <path d="M 925,388 C 925,408 800,408 800,428" stroke="#6b7280" stroke-width="1.2" fill="none" stroke-dasharray="4,2" marker-end="url(#arr-gray)"/>
  <path d="M 1037,388 C 1037,408 800,408 800,428" stroke="#6b7280" stroke-width="1.2" fill="none" stroke-dasharray="4,2" marker-end="url(#arr-gray)"/>
  <path d="M 1149,388 C 1149,408 800,408 800,428" stroke="#6b7280" stroke-width="1.2" fill="none" stroke-dasharray="4,2" marker-end="url(#arr-gray)"/>
  <rect x="20" y="530" width="1160" height="40" rx="6" fill="#f9fafb" stroke="#e5e7eb" stroke-width="1"/>
  <line x1="40" y1="550" x2="76" y2="550" stroke="#9333ea" stroke-width="1.5" marker-end="url(#arr-purple)"/>
  <text x="82" y="554" font-size="11" fill="#4b5563">Slack webhook</text>
  <line x1="190" y1="550" x2="226" y2="550" stroke="#16a34a" stroke-width="1.5" marker-end="url(#arr-green)"/>
  <text x="232" y="554" font-size="11" fill="#4b5563">Queue produce/consume</text>
  <line x1="390" y1="550" x2="426" y2="550" stroke="#2563eb" stroke-width="1.5" marker-end="url(#arr-blue)"/>
  <text x="432" y="554" font-size="11" fill="#4b5563">GraphQL query</text>
  <line x1="570" y1="550" x2="606" y2="550" stroke="#ea580c" stroke-width="1.5" marker-end="url(#arr-orange)"/>
  <text x="612" y="554" font-size="11" fill="#4b5563">Federation routing</text>
  <line x1="750" y1="550" x2="786" y2="550" stroke="#6b7280" stroke-width="1.5" marker-end="url(#arr-gray)"/>
  <text x="792" y="554" font-size="11" fill="#4b5563">D1 SQL binding</text>
</svg>